<?xml version="1.0" encoding="UTF-8" standalone="no"?>
<!-- Created with Inkscape (http://www.inkscape.org/) -->

<svg
   xmlns:dc="http://purl.org/dc/elements/1.1/"
   xmlns:cc="http://creativecommons.org/ns#"
   xmlns:rdf="http://www.w3.org/1999/02/22-rdf-syntax-ns#"
   xmlns:svg="http://www.w3.org/2000/svg"
   xmlns="http://www.w3.org/2000/svg"
   xmlns:sodipodi="http://sodipodi.sourceforge.net/DTD/sodipodi-0.dtd"
   xmlns:inkscape="http://www.inkscape.org/namespaces/inkscape"
   width="65.086357mm"
   height="37.371246mm"
   viewBox="0 0 65.086357 37.371246"
   version="1.1"
   id="svg8"
   inkscape:version="0.92.4 (5da689c313, 2019-01-14)"
   sodipodi:docname="WorldMap.svg">
  <defs
     id="defs2" />
  <sodipodi:namedview
     id="base"
     pagecolor="#ffffff"
     bordercolor="#666666"
     borderopacity="1.0"
     inkscape:pageopacity="0.0"
     inkscape:pageshadow="2"
     inkscape:zoom="4"
     inkscape:cx="107.42595"
     inkscape:cy="66.191976"
     inkscape:document-units="mm"
     inkscape:current-layer="layer3"
     showgrid="false"
     inkscape:window-width="1920"
     inkscape:window-height="1018"
     inkscape:window-x="1358"
     inkscape:window-y="-8"
     inkscape:window-maximized="1" />
  <metadata
     id="metadata5">
    <rdf:RDF>
      <cc:Work
         rdf:about="">
        <dc:format>image/svg+xml</dc:format>
        <dc:type
           rdf:resource="http://purl.org/dc/dcmitype/StillImage" />
        <dc:title />
      </cc:Work>
    </rdf:RDF>
  </metadata>
  <g
     inkscape:groupmode="layer"
     id="layer3"
     inkscape:label="Background"
     transform="translate(0.62781247,-0.37331742)"
     style="display:inline">
    <rect
       style="fill:#000051;fill-opacity:1;stroke:none;stroke-width:0.065;stroke-miterlimit:4;stroke-dasharray:none;stroke-opacity:1"
       id="rect948"
       width="65.021355"
       height="37.306248"
       x="-0.59531248"
       y="0.40581742" />
    <text
       xml:space="preserve"
       style="font-style:normal;font-weight:normal;font-size:10.58333302px;line-height:1.25;font-family:sans-serif;letter-spacing:0px;word-spacing:0px;fill:#000000;fill-opacity:1;stroke:none;stroke-width:0.26458332"
       x="1.9446567"
       y="2.1977153"
       id="text2085"><tspan
         sodipodi:role="line"
         id="tspan2083"
         x="1.9446567"
         y="11.561484"
         style="stroke-width:0.26458332" /></text>
  </g>
  <g
     inkscape:groupmode="layer"
     id="layer2"
     inkscape:label="Map"
     style="display:inline"
     transform="translate(0.62781247,-0.37331742)">
    <path
       transform="translate(-229.15784,-289.69113)"
       style="display:inline;fill:none;stroke:#0044aa;stroke-width:0.16500001;stroke-linecap:butt;stroke-linejoin:miter;stroke-miterlimit:4;stroke-dasharray:none;stroke-opacity:1"
       d="m 230.19727,303.74188 3.04744,-2.43323 c 2.15583,0.008 1.60631,1.31584 2.66001,2.5537 0.60498,0.71072 0.33335,-0.82673 0.49438,-0.46871 0.16103,0.35802 0.59781,0.80708 0.72791,1.28661 0.0357,0.13151 0.46786,-0.36679 0.4427,-0.007 l -0.12868,1.84026 0.76405,1.62033 0.67343,0.78466 0.43518,0.8485 c 0.13746,0.26802 0.3796,0.6704 0.48359,0.77528 0.10398,0.10488 0.18633,0.0879 0.23682,-0.13155 l -0.60594,-1.63712 1.51191,2.36589 1.22251,0.62248 0.53153,-0.0827 0.99219,0.43703 0.74414,0.8977 0.48428,0.0236 0.24805,-0.12993 0.29529,0.23624 0.0236,0.61421 -0.55516,0.77957 -0.12992,0.18899 0.2008,0.31892 -0.16537,0.36616 0.43704,0.4961 0.41341,0.95675 0.8032,0.72052 0.14174,0.31891 0.0945,0.98038 -0.43703,2.2088 v 1.67727 l -0.34254,0.49609 0.16536,0.42522 -0.34254,0.10631 0.30711,0.46066 0.0354,0.57877 0.23624,0.6969 0.74414,0.42522 0.72051,-0.0827 -0.77957,-1.14574 0.5079,-0.85045 -0.28348,-0.35435 v -0.41341 h 0.25986 l 0.49609,-0.62603 -0.21261,-0.41341 0.31892,-0.0236 0.0945,-0.4961 0.68508,-0.12993 0.18899,-0.44884 v -0.25987 l 0.43704,-0.0354 0.66146,-0.68508 0.51971,-1.16936 1.14574,-0.61422 0.22443,-0.53153 0.0472,-1.02762 0.68509,-0.72051 -0.0236,-0.72052 -1.004,-0.50791 -0.51972,0.0827 -0.31891,-0.36617 -0.48429,-0.0709 -0.64964,-1.02762 h -0.75595 l -0.63784,-0.4961 -0.10631,-0.46065 -1.01581,0.14174 -0.48428,-0.28349 -0.9095,0.0236 -0.21261,0.47247 -0.57878,-0.21261 -0.4016,0.2008 -0.16537,-0.2953 0.0827,-0.51971 -0.21261,-0.31892 -0.64965,-0.0591 0.23623,-0.76776 -0.36616,-0.33073 -0.47247,0.38978 -0.11812,0.35436 h -0.42522 l -0.34254,-0.24805 -0.0709,-0.86226 0.2008,-0.69689 0.93313,-0.2008 1.1103,-0.0236 0.37798,0.68509 0.34254,-0.0236 -0.22443,-1.13393 0.8977,-1.28748 0.38979,-0.59059 0.63783,-0.15355 -0.17718,-0.49609 0.90951,-0.38979 -0.0827,0.36616 0.92131,-0.56696 -0.14174,-0.23624 -0.24804,0.0827 -0.30711,-0.21262 0.0827,-0.36616 -0.17717,-0.0827 -0.93313,0.2008 0.76776,-0.44885 0.93313,-0.0473 0.23624,-0.24804 0.3071,0.0236 -0.34254,0.56697 v 0.4016 l 0.88588,0.11811 0.27167,0.14174 -0.11812,-0.64964 -0.14174,-0.25986 -0.22442,-0.0709 -0.16536,-1.12212 -0.31892,-0.12993 -0.0473,-0.18899 -0.57877,-0.38978 -0.0236,-0.4961 -0.59059,-0.81501 -0.38979,0.59059 -0.22442,-0.0591 -0.0236,-0.49609 -0.54334,-0.50791 0.0236,-0.25986 -1.06306,0.0591 -0.17717,0.27167 0.0591,0.81501 -0.0945,0.15356 0.4016,0.63783 -0.48428,0.70871 0.0827,0.9095 -0.37797,-0.0118 -0.12993,-1.004 -0.67327,-0.24805 -0.85045,-0.51971 -0.29529,0.11811 -0.0118,-0.5079 -0.25985,-0.17718 0.0236,-0.66146 0.54334,-0.66145 -0.22442,-0.2953 0.0118,-0.16536 0.37797,0.14174 0.34255,-0.25986 0.0709,-0.14174 -0.10631,-0.53153 0.36616,-0.0591 0.10631,-0.23623 0.38979,0.11811 0.37797,-0.41341 -0.0827,-0.87407 -0.4016,-0.17717 -0.33073,0.43703 -0.18898,0.41341 -0.30711,-0.49609 -0.21261,-0.0473 -0.24805,-0.25986 -0.21261,-0.73233 -0.31892,-0.49609 0.21261,-0.22442 0.0118,-0.23624 0.16536,-0.0118 0.35435,-0.73233 -0.75595,-0.22442 -0.21261,0.67327 -0.0118,0.69689 -0.28349,0.77958 0.37798,0.54334 0.2008,0.31892 -0.2008,0.15355 -0.18899,-0.0236 -0.0591,-0.4961 -0.22442,-0.0354 -0.27167,0.72052 -0.44885,0.15355 -0.27167,-0.22443 -0.41341,-0.24804 -0.23623,0.0709 -0.0709,0.41341 -0.53153,-0.29529 -0.57878,0.16536 -0.12993,-0.0827 0.11812,-0.31892 -0.29529,-0.2008 -0.18899,0.17718 -0.44885,-0.0354 -0.5079,-0.49609 h -0.31892 l -0.0945,0.0591 -0.38978,-0.34254 -0.25986,0.25985 -0.0709,-0.22442 -1.08668,0.86226 -0.59059,-0.44885 -1.87807,-0.3071 -0.6969,-0.36617 h -0.62602 l -0.7087,0.82683 -0.66146,0.22442 -0.0354,0.18899 0.95676,0.76776 -0.10631,0.33073 -0.49609,-0.12993 -0.47247,0.31892 0.17717,0.44885 0.83864,0.0236 0.0118,0.36616 -0.38979,0.10631 -0.41341,0.43704 0.24805,0.34254 0.0354,0.55515 0.21261,0.2008 0.6969,0.0945 -0.0118,0.35436 -1.63003,1.28748 z"
       id="path828"
       inkscape:connector-curvature="0"
       sodipodi:nodetypes="ccsssscccsscccccccccccccccccccccccccccccccccccccccccccccccccccccccccccccccccccccccccccccccccccccccccccccccccccccccccccccccccccccccccccccccccccccccccccccccccccccccccccccccccccccccccccccccccccccccccccccccccccccccccccccccc" />
    <path
       style="fill:none;stroke:#0044aa;stroke-width:0.16500001;stroke-linecap:butt;stroke-linejoin:miter;stroke-miterlimit:4;stroke-dasharray:none;stroke-opacity:1"
       d="m 27.759281,13.558707 0.23386,-0.175395 0.105238,-0.222168 0.09354,-0.07016 0.327406,0.245554 -0.07016,0.77174 -0.152011,0.187089 -0.30402,0.03508 -0.210473,-0.210475 0.175395,-0.23386 z"
       id="path847"
       inkscape:connector-curvature="0" />
    <path
       style="fill:none;stroke:#0044aa;stroke-width:0.16500001;stroke-linecap:butt;stroke-linejoin:miter;stroke-miterlimit:4;stroke-dasharray:none;stroke-opacity:1"
       d="m 28.308855,12.354324 0.456028,-0.304019 0.245555,0.05846 -0.03508,0.210475 0.292327,0.11693 -0.152011,0.362485 0.374179,0.444335 0.140317,0.467722 0.210473,0.210475 -0.03508,0.327405 -0.350792,0.198782 -0.374176,0.07016 h -0.280633 l -0.222168,0.152009 0.385871,-0.444335 -0.257247,-0.07016 0.140317,-0.233861 -0.01169,-0.140317 0.140317,-0.210475 -0.05846,-0.210474 -0.252381,-0.150654 -0.168578,-0.153367 z"
       id="path849"
       inkscape:connector-curvature="0"
       sodipodi:nodetypes="ccccccccccccccccccccccc" />
    <path
       style="fill:none;stroke:#0044aa;stroke-width:0.16500001;stroke-linecap:butt;stroke-linejoin:miter;stroke-miterlimit:4;stroke-dasharray:none;stroke-opacity:1"
       d="m 25.455752,9.8695527 0.140316,-0.1578559 -0.239707,-0.3098658 0.257247,-0.2689399 0.274786,0.3157122 0.198782,-0.087698 0.216321,0.093545 0.38587,-0.380024 0.52034,0.514494 -0.210473,0.3975634 -0.280633,0.1052373 -0.192937,0.263094 -0.076,0.07601 -0.760047,0.0058 -0.05262,-0.391717 z"
       id="path851"
       inkscape:connector-curvature="0" />
    <path
       style="fill:none;stroke:#0044aa;stroke-width:0.16500001;stroke-linecap:butt;stroke-linejoin:miter;stroke-miterlimit:4;stroke-dasharray:none;stroke-opacity:1"
       d="m 15.025558,20.773314 0.198782,-0.245554 0.724969,0.105238 0.245554,0.210474 0.292326,0.01169 0.222168,0.292326 -0.175396,0.140317 -0.38587,-0.05847 -0.339099,-0.339099 -0.315712,0.105238 z"
       id="path853"
       inkscape:connector-curvature="0" />
    <path
       style="fill:none;stroke:#0044aa;stroke-width:0.16500001;stroke-linecap:butt;stroke-linejoin:miter;stroke-miterlimit:4;stroke-dasharray:none;stroke-opacity:1"
       d="m 16.896445,21.509976 0.233861,-0.304019 0.608038,0.05846 0.128624,0.26894 -0.432643,0.11693 z"
       id="path855"
       inkscape:connector-curvature="0" />
    <path
       style="fill:none;stroke:#0044aa;stroke-width:0.16500001;stroke-linecap:butt;stroke-linejoin:miter;stroke-miterlimit:4;stroke-dasharray:none;stroke-opacity:1"
       d="m 33.717813,11.824064 -0.28112,0.06615 0.248047,0.388606 -0.05788,0.07441 -0.272852,-0.07441 -0.214974,0.256315 0.03307,0.603581 -0.04134,0.157096 -0.338998,0.02481 -0.256315,-0.173633 -0.330729,0.388607 -0.264583,0.0083 -0.190169,-0.239778 -0.28112,0.198437 -0.28112,-0.314192 0.206706,-0.19017 0.08268,-0.363802 -0.02479,-0.264583 -0.272852,-0.04134 -0.256315,0.107487 0.02479,0.438216 0.01654,0.694531 -0.04961,0.115755 -0.23151,0.01654 -0.181901,0.132291 -0.107487,0.248047 -0.338997,0.19017 -0.322461,0.438216 -0.363802,0.0083 -0.02479,0.248047 -0.314193,-0.132292 -0.165364,-0.0248 0.0083,0.297657 0.388607,0.314192 0.157096,0.338998 -0.06615,0.405143 -0.380338,0.08268 -0.768946,-0.01654 -0.23151,0.173633 -0.01654,1.066601 0.04134,0.347266 0.157096,0.115755 0.256315,-0.173633 0.396875,0.256315 0.23151,-0.223242 0.264584,0.01654 0.28112,-0.239779 0.0083,-0.520899 0.140559,-0.165364 0.429948,-0.190169 0.09095,-0.372071 0.347266,0.115756 0.281119,-0.223243 0.388607,-0.06614 0.388607,0.578776 0.553971,0.347265 -0.05788,0.363802 -0.297657,-0.01654 -0.04961,0.107487 0.347266,0.264583 0.248046,-0.08268 0.14056,-0.628386 0.148828,0.107487 0.124024,-0.107487 -0.23151,-0.256315 -0.305925,-0.256315 -0.248047,-0.173633 -0.190169,-0.545703 0.28112,0.289388 0.727604,0.463021 0.148828,0.694531 0.363802,0.56224 0.338997,-0.181901 -0.03307,-0.37207 -0.09095,-0.264584 0.314193,-0.198437 0.297656,0.115755 v 0.553971 l 0.132292,0.28112 0.429948,0.0083 0.305924,0.132292 0.396875,-0.02481 0.297656,-0.115755 -0.0083,0.413412 -0.463021,0.694531 -0.148828,-0.01654 -0.338997,-0.07441 -0.305925,0.107487 -0.223242,-0.09922 -0.553971,-0.09095 -0.314193,-0.223242 -0.165364,0.115755 -0.289388,0.413411 -0.487826,0.0083 -0.363802,-0.42168 -0.578776,0.0083 -0.165365,-0.256315 0.03307,-0.380338 -0.23151,-0.214974 h -0.603581 l -0.256315,0.08268 -0.830956,0.02481 -0.405143,0.392741 -0.04548,-0.08268 h -0.417545 l -0.111622,0.227377 -0.545703,0.491959 -0.07855,0.467155 -0.644922,0.587044 -0.434083,0.640788 0.08682,1.14515 -0.256315,0.363802 0.177766,0.347266 0.355534,0.37207 0.148828,0.405143 0.330729,0.380339 0.446485,0.214974 0.157096,0.157096 0.529167,-0.0083 0.37207,-0.181901 0.587044,-0.0083 0.322461,-0.289388 0.380339,-0.04961 0.181901,0.305925 0.165365,0.06615 h 0.46302 l -0.107487,0.479557 -0.07441,0.405143 0.181901,0.396875 0.512631,0.669727 0.09095,0.173693 0.04134,0.669726 -0.04961,0.264583 -0.214974,0.223243 0.0083,0.74414 0.372071,0.471289 0.148828,0.694532 0.04134,0.537434 0.314192,0.620118 0.405144,0.429948 0.0248,0.264583 0.264584,0.124023 0.686263,-0.124023 0.413411,-0.14056 0.181901,-0.01654 0.56224,-0.636654 0.0083,-0.338998 0.388607,-0.496093 0.338997,-0.314193 v -0.297656 l 0.09922,-0.206706 -0.02481,-0.388607 -0.03307,-0.264583 0.744141,-0.570508 -0.0083,-1.30638 -0.198438,-0.256315 0.09095,-0.297656 1.570963,-1.554428 0.19017,-0.487825 0.0248,-0.644922 -0.206705,-0.148828 -0.239779,0.157096 -0.09922,0.06615 -0.479557,-0.0083 -0.231511,-0.198438 0.04134,-0.148828 0.587044,-0.08268 0.42168,-0.289388 0.223242,-0.03307 0.496094,-0.380338 0.529166,-0.07441 0.636654,-0.851627 -0.51263,-0.446485 -0.198438,-0.289388 -0.214974,0.181901 -0.09922,0.115756 -0.305924,-0.0083 -0.06615,-0.256315 -0.198437,-0.07441 -0.479558,-0.835091 0.84336,0.620117 0.545703,0.04134 0.496094,0.363803 0.677994,0.0248 0.148828,0.09095 0.603581,0.07441 0.181901,0.03307 0.04134,0.338997 0.206706,0.198438 0.330729,-0.256315 0.239779,0.901237 0.28112,0.835091 0.330729,0.504362 0.07441,0.330729 0.405143,-0.08268 0.223242,-0.603581 0.06615,-0.587044 0.198438,-0.206706 0.28112,-0.14056 0.454752,-0.578776 0.463021,-0.289388 0.264583,-0.07441 0.314193,0.148828 0.223242,0.330729 -0.01654,0.463021 0.107487,0.305924 0.09922,0.132292 0.256316,-0.272852 h 0.140559 l 0.231511,0.314193 -0.02481,0.909505"
       id="path857"
       inkscape:connector-curvature="0" />
    <path
       style="fill:none;stroke:#0044aa;stroke-width:0.16500001;stroke-linecap:butt;stroke-linejoin:miter;stroke-miterlimit:4;stroke-dasharray:none;stroke-opacity:1"
       d="m 37.000346,22.37447 -0.124044,-0.711036 -0.463021,-0.8847 -0.661459,-0.975651 -0.330729,-0.380339 -0.02479,0.644922 0.644922,0.711068 0.305924,0.496094 v 0.46302 l 0.653211,0.636622"
       id="path859"
       inkscape:connector-curvature="0" />
    <path
       style="fill:none;stroke:#0044aa;stroke-width:0.16500001;stroke-linecap:butt;stroke-linejoin:miter;stroke-miterlimit:4;stroke-dasharray:none;stroke-opacity:1"
       d="m 37.107812,27.476 0.330729,-0.297656 h 0.248047 l 0.363802,-0.496094 0.09922,0.06615 0.01654,0.661458 -0.248047,0.992188 -0.181901,0.479557 -0.380338,0.214974 -0.363802,-0.628386 0.132291,-0.46302 z"
       id="path861"
       inkscape:connector-curvature="0" />
    <path
       style="fill:none;stroke:#0044aa;stroke-width:0.16500001;stroke-linecap:butt;stroke-linejoin:miter;stroke-miterlimit:4;stroke-dasharray:none;stroke-opacity:1"
       d="m 46.508796,22.920149 0.0083,0.173689 0.463021,0.165365 -0.132291,-0.529167 0.05788,-0.338998 0.239779,-0.06615 0.388607,0.322461 0.04134,0.248046 0.14056,0.07441 0.702799,-0.545703 -0.05788,-0.686263 -0.562239,-0.51263 -0.09095,-0.429948 0.09922,-0.173633 0.181901,0.132292 0.05788,0.396875 0.07441,0.107487 0.471289,-0.04134 0.03307,-0.355534 0.768945,-0.504362 0.677995,-0.42168 0.214974,-0.330729 -0.04134,-0.595312 -0.223242,-0.56224 0.140559,-0.471289 0.338998,-0.14056 0.02479,-0.405143 h -0.529166 l -0.190151,-0.02481 v -0.256315 l 0.338997,-0.264583 0.355534,-0.14056 -0.190169,0.355534 0.04961,0.124023 0.28112,-0.05788 0.289388,-0.206706 0.0083,0.314193 0.132292,0.206705 -0.04961,0.305925 -0.06615,0.239779 0.314193,0.115755 0.231511,0.03307 0.23151,-0.206706 0.0083,-0.297656 -0.355534,-0.65319 0.256315,-0.214974 0.124024,-0.355534 0.347265,-0.165365 0.512631,-0.03307 0.545703,-0.60358 0.363802,-0.669727 0.115755,-0.396875 -0.01654,-0.785482 0.132292,-0.0248 0.04134,0.595312 v 0.802018 l -0.01654,0.19017 0.132291,0.07441 0.223243,0.115755 -0.0083,-0.454753 0.05788,-0.504362 -0.04134,-0.60358 -0.305924,-0.7028 -0.231511,0.165365 -0.23151,-0.223243 -0.181901,0.206706 -0.330729,0.01654 -0.132292,-0.272852 0.413411,-0.388607 0.01654,-0.51263 0.578776,-0.454753 0.446484,-0.115755 0.628386,-0.0083 0.487825,0.04961 0.388607,0.223243 0.322461,-0.14056 v -0.297657 l 0.23151,-0.181901 0.04134,-0.37207 0.512631,-0.173633 0.223242,0.173633 0.479557,-0.42168 0.09095,0.09095 -0.09922,0.553971 -0.239779,0.338998 -0.314192,0.281119 -0.487826,0.289389 -0.248047,0.314192 -0.0083,1.562696 0.09922,0.08268 h 0.198437 l 0.355534,-0.338998 0.01654,-0.388606 0.595312,-0.926042 -0.206706,-0.355534 0.03307,-0.28112 0.42168,-0.338997 0.454753,-0.289388 0.429948,0.355534 0.950846,-0.950847 0.520898,-0.0083 -0.165364,-0.330729 V 9.7323798 l 0.248047,-0.00827 0.305924,-0.6366536 0.107487,0.2811198 0.380339,0.1984375 0.46302,0.2645833 L 61.986913,9.3107001 61.763671,8.8228746 61.325455,8.764997 60.382877,7.9629787 59.514713,7.4503485 58.613476,7.2932522 58.745767,7.8472235 58.26621,7.7893459 57.803189,7.5247626 57.455924,7.6901272"
       id="path863"
       inkscape:connector-curvature="0" />
    <path
       style="fill:none;stroke:#0044aa;stroke-width:0.16500001;stroke-linecap:butt;stroke-linejoin:miter;stroke-miterlimit:4;stroke-dasharray:none;stroke-opacity:1"
       d="m 51.792187,18.678604 0.06615,-0.42168 0.438216,-0.338997 0.429948,-0.198438 0.504362,-0.07441 0.248047,-0.289388 -0.04961,-0.330729 0.132292,-0.289388 -0.173633,-0.297656 0.173633,-0.248047 v -0.256315 l 0.264583,-0.231511 0.338998,0.165365 0.429947,-0.03307 0.553972,-0.446485 0.09095,0.107487 -0.545703,0.429948 -0.0083,0.181901 0.04134,0.107487 -0.07441,0.09095 -0.23151,-0.0083 -0.314193,0.347265 -0.190169,-0.148828 -0.115755,-0.01654 0.09922,0.214974 0.157097,0.173632 v 0.28112 l -0.132292,0.08268 -0.0083,0.669726 -0.446484,0.487826 -0.603581,0.03307 -0.289388,0.264583 -0.157096,-0.02481 -0.165365,-0.05788 -0.04134,0.239778 z"
       id="path867"
       inkscape:connector-curvature="0" />
    <path
       style="fill:none;stroke:#0044aa;stroke-width:0.16500001;stroke-linecap:butt;stroke-linejoin:miter;stroke-miterlimit:4;stroke-dasharray:none;stroke-opacity:1"
       d="M 57.455924,7.6901272 56.901952,7.6322492 56.67871,7.3345929 56.65392,6.9377179 55.802292,6.8467679 55.430222,6.6648669 54.917592,5.9868721 53.859258,5.9786021 53.536797,6.086089 53.379701,6.6152557 53.082045,6.6235257 52.734779,6.2845283 52.17254,6.3258693 52.12293,6.6069891 51.717787,6.747549 51.461472,6.4333563 V 5.8297756 L 50.675989,5.2509996 50.097213,5.9124579 49.716875,5.5651923 48.666809,5.3502184 48.088033,5.6396064 47.54233,5.4990465 l 1.289844,-1.1988932 -0.02479,-0.6201172 -0.42168,-0.4051432 -0.661458,0.3389974 0.01654,-0.504362 -0.314193,-0.033073 0.04134,-0.2811198 -0.520899,-0.033073 -0.181901,0.6201171 -0.28112,0.041341 -0.07441,0.2645833 -0.620117,0.024805 -0.603581,0.289388 -0.463021,0.2645834 -0.281119,0.4051432 -0.03307,0.3886067 -0.487826,0.2893881 -0.74414,0.057878 0.01654,0.2811198 0.330729,0.5953124 0.107487,0.2563151 -0.620117,-0.2563151 -0.272852,0.041341 -0.03307,0.3472656 -0.198438,-0.041341 -0.05788,-0.4547526 -0.181901,-0.099219 -0.148828,0.099219 0.06615,0.396875 0.06615,0.396875 -0.07441,0.3472656 -0.03307,0.3307291 0.132292,0.2645834 -0.07441,0.4960937 0.02479,0.2811198 -0.595312,0.4216797 0.446484,-0.5457031 -0.214974,-0.4547526 -0.05788,-2.1166667 -0.23151,-0.2563151 -0.190169,0.00827 -0.347266,0.6697265 -0.04961,0.5539714 -0.115756,0.1322916 0.04134,0.2976563 L 41.308113,8.01259 41.175794,8.1366116 40.886406,8.1118069 40.431653,7.6405178 40.133997,7.5247626 39.74539,7.2271064 39.489075,7.4420803 39.795,7.7066636 39.803255,8.1696845 39.646158,7.9960517 39.323697,7.971247 39.158333,8.2523668 38.84414,8.2358303 38.711848,8.078734 l -0.297656,0.033073 -1.008724,0.8268229 -0.14056,-0.1240235 0.0083,-0.2563151 0.223243,-0.2149739 -0.355534,-0.3141927 -0.223242,-0.016536 -0.03307,0.4051432 0.115755,0.099219 0.01654,0.6201172 -0.04961,0.1736328 H 36.520806 L 36.3141,9.5504795 36.3058,9.7819899 36.44636,9.9225498 36.41329,10.013501 35.942001,9.7654535 35.983341,10.096183 35.462434,9.8977443 35.421093,9.45126 34.982877,8.9882391 35.106901,8.8807522 35.561653,9.1866766 36.082552,9.2114813 36.438085,9.054385 36.529036,8.7071194 36.363671,8.4011949 35.553385,7.8554918 H 35.197851 L 34.87539,7.5247626 34.610807,7.6239814 34.519856,7.5082261 34.842317,7.2105699 34.544661,6.9873277 34.172591,6.962523 33.916276,7.2271064 33.89974,6.888109 33.411914,7.3511299 h -0.181901 v 0.1570963 l -0.297656,-0.00827 -0.04134,0.1901693 -0.42168,0.033073 -0.06615,0.2976562 -0.165364,-0.016536 -0.03307,0.396875 -0.686263,1.1658203 -0.677995,0.7028 -0.42168,0.570508 -0.08268,0.51263 -0.05788,0.644922 0.14056,0.14056 0.338998,0.09095 0.529166,-0.248047 0.181901,0.107487 0.231511,0.380339 0.09095,0.223242 -0.181901,0.264583 0.173633,0.148828 0.322461,-0.165364 0.289388,-0.322461 0.02481,-0.355534 0.124023,-0.305924 0.173633,-0.297657 -0.07441,-0.14056 -0.223242,-0.165364 0.04134,-0.611849 0.504362,-0.504362 0.190169,-0.2645838 0.01654,-0.4134115 0.214973,-0.2232421 0.289388,0.074414 0.107487,0.2563151 -0.03307,0.214974 -0.719336,0.6697273 -0.0083,0.421679 0.198438,0.438216 0.843359,0.04134 0.347266,-0.198438 0.206706,0.14056 0.0248,0.190169 -0.223242,0.05788 -0.198437,0.06615 v 0.223242 h -0.305925 l -0.198463,-0.107665"
       id="path869"
       inkscape:connector-curvature="0" />
    <path
       style="fill:none;stroke:#0044aa;stroke-width:0.16500001;stroke-linecap:butt;stroke-linejoin:miter;stroke-miterlimit:4;stroke-dasharray:none;stroke-opacity:1"
       d="m 30.890104,16.822386 0.03307,0.37207 0.06201,0.181902 0.235643,-0.132292 0.0041,-0.529167 -0.148828,-0.16123 -0.1695,0.08268 z"
       id="path871"
       inkscape:connector-curvature="0" />
    <path
       style="fill:none;stroke:#0044aa;stroke-width:0.065;stroke-linecap:butt;stroke-linejoin:miter;stroke-miterlimit:4;stroke-dasharray:none;stroke-opacity:1"
       d="m 34.436007,16.37673 v -0.05846 l 0.444336,-0.678196 0.245555,0.152009 0.912055,0.163703 0.385871,0.257247 0.245555,0.350791 -0.18709,0.245554 -0.865285,-0.08185 -0.315711,-0.198782 -0.374177,0.304019 -0.374179,-0.07016 z"
       id="path873"
       inkscape:connector-curvature="0" />
    <path
       style="fill:none;stroke:#0044aa;stroke-width:0.065;stroke-linecap:butt;stroke-linejoin:miter;stroke-miterlimit:4;stroke-dasharray:none;stroke-opacity:1"
       d="m 37.558051,15.862237 0.853591,-0.631425 0.479414,0.432643 -0.07016,0.128623 -0.491109,0.05847 -0.07016,0.362484 0.245552,0.420949 0.140317,0.09354 -0.05846,0.467721 0.257249,0.362485 -0.268941,0.245554 -0.456028,-0.105238 -0.163703,-0.222168 -0.18709,-0.04677 0.268941,-0.467721 -0.339098,-0.350792 z"
       id="path875"
       inkscape:connector-curvature="0" />
    <path
       style="fill:none;stroke:#0044aa;stroke-width:0.065;stroke-linecap:butt;stroke-linejoin:miter;stroke-miterlimit:4;stroke-dasharray:none;stroke-opacity:1"
       d="m 13.758333,15.652432 1.008724,-0.0248 0.173633,0.124024 -0.42168,0.297656 -0.05788,0.727604 0.347265,-0.173633 0.07441,-0.446484 0.165365,-0.214974 h 0.190169 l -0.02481,0.429948 -0.0083,0.65319 0.553972,-0.01654 0.347265,-0.281119 0.429948,-0.248047 -0.148828,-0.19017 -0.223242,-0.05788 -0.223242,0.148828 -0.115756,0.28112 -0.115755,0.06615 -0.157096,-0.198438 -0.124024,-0.124023 0.206706,-0.04134 0.132292,-0.248046 0.165364,-0.124024 -0.09922,-0.256315 -0.231511,-0.08268 -0.214974,0.01654 -0.37207,-0.305924 -0.388607,-0.305925 -0.157096,-0.0083 -0.669727,0.446484 z"
       id="path877"
       inkscape:connector-curvature="0" />
    <path
       style="fill:none;stroke:#0044aa;stroke-width:0.065;stroke-linecap:butt;stroke-linejoin:miter;stroke-miterlimit:4;stroke-dasharray:none;stroke-opacity:1"
       d="m 9.2686848,11.303343 0.4464843,-0.05788 0.082682,-0.206706 -0.1074869,-0.214974 0.1405599,-0.0083 0.2397789,0.173633 0.248047,-0.03307 0.28112,-0.264584 0.206705,0.124024 0.09095,0.07441 -0.181901,0.09922 -0.231511,0.04134 -0.198437,0.214974 -0.06615,0.181901 -0.3720705,0.124023 -0.1488281,0.09922 z"
       id="path879"
       inkscape:connector-curvature="0" />
    <path
       style="fill:none;stroke:#0044aa;stroke-width:0.065;stroke-linecap:butt;stroke-linejoin:miter;stroke-miterlimit:4;stroke-dasharray:none;stroke-opacity:1"
       d="M 8.0740453,9.4836823 8.2085153,9.3024403 8.6177717,9.2849011 9.0387211,8.9984216 9.0036421,9.2732081 9.3953591,9.2498216 9.2725821,9.536301 9.1907309,9.7000038 8.9451769,9.659078 8.9100979,9.8929387 H 8.4365297 L 8.5242275,9.670771 8.4482227,9.4719893 8.296213,9.3784451 Z"
       id="path881"
       inkscape:connector-curvature="0" />
    <path
       style="fill:none;stroke:#0044aa;stroke-width:0.16500001;stroke-linecap:butt;stroke-linejoin:miter;stroke-miterlimit:4;stroke-dasharray:none;stroke-opacity:1"
       d="M 8.6060787,3.9470271 9.0971864,3.9353352 9.3427403,3.8300977 9.5415221,3.7014742 9.5999873,3.0934361 9.2842751,3.0115848 8.4657622,3.7482465 Z"
       id="path883"
       inkscape:connector-curvature="0" />
    <path
       style="fill:none;stroke:#0044aa;stroke-width:0.16500001;stroke-linecap:butt;stroke-linejoin:miter;stroke-miterlimit:4;stroke-dasharray:none;stroke-opacity:1"
       d="m 9.5539387,7.6777248 0.2852539,0.2067058 0.6283854,0.3224609 0.888835,-0.2769857 0.450618,0.1033529 0.06615,-0.2687175 0.318327,-0.07028 -0.7028,-0.6738607 -0.124027,-0.942578 -0.177767,-0.1736328 -0.243913,0.1529622 -0.0083,0.7813477 L 10.595736,6.201846 10.03763,6.1935777 9.9218749,5.8339098 9.744108,5.8256415 9.3058918,6.2721259 9.276953,6.7847561 9.4795246,6.8674384 9.3761718,7.251911 l 0.9219072,-0.00414 0.03721,0.1860352 -0.8020179,0.053744 z"
       id="path885"
       inkscape:connector-curvature="0" />
    <path
       style="fill:none;stroke:#0044aa;stroke-width:0.16500001;stroke-linecap:butt;stroke-linejoin:miter;stroke-miterlimit:4;stroke-dasharray:none;stroke-opacity:1"
       d="M 8.2599608,6.9873277 8.8842121,6.9459866 8.8924804,6.5325751 9.673828,5.6933499 9.4423176,5.3832913 8.5658853,5.0318915 8.2062173,5.2137926 8.2020832,5.8959215 7.8589517,6.5160387 Z"
       id="path887"
       inkscape:connector-curvature="0" />
    <path
       style="fill:none;stroke:#0044aa;stroke-width:0.16500001;stroke-linecap:butt;stroke-linejoin:miter;stroke-miterlimit:4;stroke-dasharray:none;stroke-opacity:1"
       d="m 12.037986,6.1628585 0.222168,-0.2046282 -0.0877,-0.2104747 0.280633,-0.2046282 0.298173,0.017539 V 6.63058 L 12.622639,6.7475104 12.260154,6.7358159 12.113991,6.4961087 12.0146,6.3791782 Z"
       id="path889"
       inkscape:connector-curvature="0" />
    <path
       style="fill:none;stroke:#0044aa;stroke-width:0.16500001;stroke-linecap:butt;stroke-linejoin:miter;stroke-miterlimit:4;stroke-dasharray:none;stroke-opacity:1"
       d="M 9.652606,4.3095113 V 3.9996459 l 0.169549,-0.1870888 0.280633,0.122777 0.111084,0.280633 0.140316,0.1052372 0.362485,-0.029232 h 0.13447 l -0.304019,-0.4092564 -0.02339,-0.3157122 0.07601,-0.181242 0.298172,0.011692 0.07601,0.4618751 0.222168,0.1110838 0.216321,-0.029232 -0.0058,0.3624842 L 11.28963,4.5316782 11.1727,4.7538459 10.927146,4.8941624 10.669899,4.8181577 10.523736,4.9877067 9.8806189,4.9643201 9.9332377,4.6018359 9.6584512,4.7304594 9.3719715,4.4615195 Z"
       id="path891"
       inkscape:connector-curvature="0" />
    <path
       style="fill:none;stroke:#0044aa;stroke-width:0.16500001;stroke-linecap:butt;stroke-linejoin:miter;stroke-miterlimit:4;stroke-dasharray:none;stroke-opacity:1"
       d="m 10.061862,2.6607926 0.309866,-0.122777 0.368331,0.040926 -0.05262,0.2923261 -0.356638,0.169549 -0.192935,-0.157856 z"
       id="path893"
       inkscape:connector-curvature="0" />
    <path
       style="fill:none;stroke:#0044aa;stroke-width:0.16500001;stroke-linecap:butt;stroke-linejoin:miter;stroke-miterlimit:4;stroke-dasharray:none;stroke-opacity:1"
       d="m 11.716428,3.6371614 0.076,0.023386 0.26894,0.2338607 0.01169,-0.3449446 0.122777,0.1227769 0.479415,0.029232 0.140316,0.2046282 -0.02339,0.502801 -0.05847,0.3507912 -0.263093,0.1695492 -0.140317,0.017539 -0.02923,-0.5086474 -0.304019,-0.040926 -0.321559,-0.4092564 z"
       id="path895"
       inkscape:connector-curvature="0" />
    <path
       style="fill:none;stroke:#0044aa;stroke-width:0.16500001;stroke-linecap:butt;stroke-linejoin:miter;stroke-miterlimit:4;stroke-dasharray:none;stroke-opacity:1"
       d="m 13.072821,4.4732141 0.181242,0.4852611 0.169549,-0.052619 0.08185,-0.13447 -0.09939,-0.3157122 -0.263093,-0.1110837 z"
       id="path897"
       inkscape:connector-curvature="0" />
    <path
       style="fill:none;stroke:#0044aa;stroke-width:0.16500001;stroke-linecap:butt;stroke-linejoin:miter;stroke-miterlimit:4;stroke-dasharray:none;stroke-opacity:1"
       d="m 14.744926,10.214497 0.210474,-0.4794143 0.233861,0.064312 0.298173,0.2104743 0.169549,0.146163 -0.01169,0.07601 -0.245554,0.0877 -0.309866,0.204628 -0.09939,0.09354 -0.15201,-0.175395 -0.08185,-0.204628 z"
       id="path899"
       inkscape:connector-curvature="0" />
    <path
       style="fill:none;stroke:#0044aa;stroke-width:0.16500001;stroke-linecap:butt;stroke-linejoin:miter;stroke-miterlimit:4;stroke-dasharray:none;stroke-opacity:1"
       d="m 14.246159,5.8215074 0.421679,-0.3638021 h 0.314193 l 0.03307,0.2067058 -0.248047,0.363802 -0.06615,0.2811198 0.04961,0.2645834 0.239778,-0.3886068 0.231511,-0.3059245 0.165364,-0.2976562 0.132292,0.024805 0.08268,0.2563151 0.06615,0.1157552 0.157096,-0.322461 0.148829,-0.041341 0.248046,0.1488281 0.08268,0.2315104 0.04961,0.2480469 0.338997,0.181901 0.124024,0.099219 0.04961,0.3141927 h 0.388607 l 0.322461,0.5126302 0.248047,0.057878 0.0083,0.3141927 0.206706,0.2728516 -0.09095,0.2728515 0.950847,0.8350912 0.06615,0.1984375 -0.272851,0.5539713 -0.529167,-0.4960937 -0.115755,0.1322916 0.09095,0.2315104 0.198437,0.2893885 0.107487,0.330729 -0.03307,0.214974 -0.405143,-0.05788 0.322461,0.314193 -0.248047,0.165364 -0.51263,-0.14056 -0.777214,-0.818554 -0.504362,0.14056 L 16.114778,9.7819891 16.602604,9.7158433 17.123502,8.731924 17.04082,8.550023 16.883724,8.5913642 16.652213,8.9634345 16.495117,8.946898 16.288411,8.6409735 16.577799,8.442536 16.792773,8.3598537 16.222265,7.8141506 16.180924,7.574372 l -0.14056,0.041341 -0.04134,0.1819011 -0.644922,-0.066146 -0.396875,-0.1405599 -0.173632,0.00827 -0.314193,-0.1240235 -0.157096,-0.066146 -0.09095,-0.3555339 -0.09922,-0.2397786 0.0083,-0.6614583 z"
       id="path901"
       inkscape:connector-curvature="0" />
    <path
       style="fill:none;stroke:#0044aa;stroke-width:0.16500001;stroke-linecap:butt;stroke-linejoin:miter;stroke-miterlimit:4;stroke-dasharray:none;stroke-opacity:1"
       d="m 14.188281,2.6217027 0.620117,0.2728516 0.07441,-0.4547526 -0.01654,-0.2480469 1.331185,0.09095 0.338997,0.2397787 0.04134,0.1322917 -0.405143,0.049609 -0.148828,0.4051432 -0.37207,0.066146 0.363802,0.3886068 -0.02481,0.1653646 -0.347266,0.1984375 -0.322461,-0.1322917 -0.471289,0.016536 -0.198437,0.1405599 -0.256315,-0.1736329 -0.297656,0.3389974 0.256315,0.3555339 0.388606,-0.049609 0.454753,-0.2563151 0.28112,-0.041341 0.305924,0.1736328 0.04134,0.3555338 -0.305924,0.2976563 -0.396875,0.181901 L 14.824935,5.0029527 14.00638,5.011221 13.77487,4.5482001 13.49375,3.9363512 13.179557,3.820596 12.972851,3.605622 V 3.3410387 l 0.33073,-0.016536 0.206705,0.2480469 0.198438,-0.1322917 0.248047,0.2728516 0.281119,-0.3638021 0.380339,-0.1901692 z"
       id="path903"
       inkscape:connector-curvature="0" />
    <path
       style="fill:none;stroke:#0044aa;stroke-width:0.16500001;stroke-linecap:butt;stroke-linejoin:miter;stroke-miterlimit:4;stroke-dasharray:none;stroke-opacity:1"
       d="m 18.868099,34.950479 0.115755,-0.198438 0.148828,-0.03307 0.248047,0.03307 0.23151,0.198438 -0.115755,0.132292 -0.396875,-0.01654 z"
       id="path905"
       inkscape:connector-curvature="0" />
    <path
       style="fill:none;stroke:#0044aa;stroke-width:0.16500001;stroke-linecap:butt;stroke-linejoin:miter;stroke-miterlimit:4;stroke-dasharray:none;stroke-opacity:1"
       d="m 17.060148,2.3333874 h 0.05846 L 18.054057,2.22815 19.422142,2.1579918 h 2.069669 l 2.011203,-0.070158 1.543481,0.081851 0.654811,0.081851 0.339098,0.4209495 0.07016,0.2689399 0.280633,0.1637025 v 0.3741774 l -0.549573,-0.093544 -0.233861,0.081851 0.362485,0.3858704 0.07016,0.3040189 0.362484,0.3624845 -0.02339,0.1520095 -0.456029,-0.023386 0.175396,0.2689399 0.26894,0.058465 -0.245554,0.2806329 -0.42095,-0.1052372 0.327406,0.2806329 v 0.3624842 l -0.771741,-0.2338607 0.08185,0.257247 0.432643,0.2455537 -0.245554,0.3975634 0.304019,0.479415 -0.116931,0.3624842 -0.432642,-0.3975635 -0.140317,0.292326 -0.549572,0.1870887 0.210474,0.1286235 0.374177,-0.093544 0.374178,0.093544 0.07016,0.1753957 -1.064067,0.7483546 -0.608038,0.1286235 -0.128623,0.1169302 v 0.3040192 l -0.549573,0.6197312 -0.315713,-0.093544 -0.432642,0.2221677 -0.198782,1.2862345 -0.128623,0.210475 -0.05847,0.397563 -0.198782,0.140317 -0.292326,-0.257247 -0.175396,-0.04677 -0.619731,-0.760048 -0.01169,-0.491108 -0.198782,0.03508 L 20.532982,9.4310635 20.3342,8.7879461 20.404359,8.3786897 20.801922,8.168215 20.837001,7.677107 20.60314,7.6420281 20.509596,7.922661 19.995102,7.5718698 l 0.362484,-0.2221677 0.04677,-0.093545 0.210474,0.011692 0.116931,-0.023386 -0.04677,-0.2923259 -0.327406,-0.2104747 -0.245554,0.1286232 -0.08185,-0.093544 -0.03508,-1.438244 L 19.574153,4.8123104 19.52738,4.3562817 19.047966,3.88856 18.346383,3.7950158 18.06575,4.0054905 17.773424,3.982104 17.714964,3.6780848 17.329094,3.5728473 17.516182,3.2805213 17.843587,3.1051256 18.042369,3.0934336 18.1593,2.9531171 17.913746,2.6724841 17.691578,2.8011076 17.305707,2.7660286 Z"
       id="path907"
       inkscape:connector-curvature="0" />
    <path
       style="fill:none;stroke:#0044aa;stroke-width:0.16500001;stroke-linecap:butt;stroke-linejoin:miter;stroke-miterlimit:4;stroke-dasharray:none;stroke-opacity:1"
       d="m 38.189474,6.5194962 0.397563,-1.169304 0.304019,-0.233861 0.175398,-0.7249684 0.491106,-0.4209497 0.257246,-0.1403165 0.280633,-0.011692 1.064067,-0.6548104 0.04677,0.3390982 -0.175395,0.3274052 -0.409257,0.1052375 -0.678196,0.4677217 -0.584652,0.8535918 -0.409258,0.6080385 0.116933,0.8068198 0.222165,0.4326425 -0.07016,0.1870887 -0.643117,-0.1403165 -0.140317,-0.2806332 z"
       id="path909"
       inkscape:connector-curvature="0" />
    <path
       style="fill:none;stroke:#0044aa;stroke-width:0.16500001;stroke-linecap:butt;stroke-linejoin:miter;stroke-miterlimit:4;stroke-dasharray:none;stroke-opacity:1"
       d="M 53.179953,4.6603028 53.764605,4.3679766 54.173863,4.508293 54.255713,4.1458088 53.0981,3.6079289 52.922705,3.9587201 52.875935,4.3679766 Z"
       id="path911"
       inkscape:connector-curvature="0" />
    <path
       style="fill:none;stroke:#0044aa;stroke-width:0.16500001;stroke-linecap:butt;stroke-linejoin:miter;stroke-miterlimit:4;stroke-dasharray:none;stroke-opacity:1"
       d="m 53.320269,5.2566477 0.18709,-0.2104747 0.327406,0.093545 0.04677,0.2689399 -0.08185,0.1987817 -0.315712,-0.023386 z"
       id="path913"
       inkscape:connector-curvature="0" />
    <path
       style="fill:none;stroke:#0044aa;stroke-width:0.16500001;stroke-linecap:butt;stroke-linejoin:miter;stroke-miterlimit:4;stroke-dasharray:none;stroke-opacity:1"
       d="m 54.606504,4.1925811 0.257247,-0.046772 0.327406,0.2221678 -0.105238,0.1987817 -0.222168,0.1403165 -0.245552,-0.315712 z"
       id="path915"
       inkscape:connector-curvature="0" />
    <path
       style="fill:none;stroke:#0044aa;stroke-width:0.16500001;stroke-linecap:butt;stroke-linejoin:miter;stroke-miterlimit:4;stroke-dasharray:none;stroke-opacity:1"
       d="M 60.020382,6.6598127 60.277631,6.437645 h 0.257246 l 0.128622,0.292326 -0.257246,0.1753957 -0.292325,-0.058465 z"
       id="path917"
       inkscape:connector-curvature="0" />
    <path
       style="fill:none;stroke:#0044aa;stroke-width:0.16500001;stroke-linecap:butt;stroke-linejoin:miter;stroke-miterlimit:4;stroke-dasharray:none;stroke-opacity:1"
       d="m 61.610636,10.050795 0.502801,-0.04677 0.105238,0.280633 -0.280633,0.09354 z"
       id="path919"
       inkscape:connector-curvature="0" />
    <path
       style="fill:none;stroke:#0044aa;stroke-width:0.16500001;stroke-linecap:butt;stroke-linejoin:miter;stroke-miterlimit:4;stroke-dasharray:none;stroke-opacity:1"
       d="m 46.244205,23.854515 -0.03307,-0.264583 0.711068,0.314192 0.132292,-0.496093 0.272851,0.08268 0.157097,0.190169 -0.05788,0.802018 0.611849,0.248047 -0.04961,0.553972 0.884701,0.223242 1.298112,0.03307 0.446484,0.165364 0.603581,-0.04134 0.223242,0.248047 -0.496094,0.42168 -0.190169,-0.01654 -0.413411,-0.297656 -0.305925,-0.02481 -0.405143,0.157097 -0.51263,0.03307 -0.859896,-0.132292 -0.636654,-0.28112 -0.46302,-0.702799 -0.405144,-0.628386 -0.256315,-0.37207 z"
       id="path921"
       inkscape:connector-curvature="0" />
    <path
       style="fill:none;stroke:#0044aa;stroke-width:0.16500001;stroke-linecap:butt;stroke-linejoin:miter;stroke-miterlimit:4;stroke-dasharray:none;stroke-opacity:1"
       d="m 48.451822,24.01988 0.347266,-0.02481 0.694531,-0.859896 0.314193,0.04134 -0.03307,0.405143 0.115755,0.14056 -0.223242,0.181901 0.23151,0.396875 -0.272851,0.396875 -0.05788,0.487826 -0.463021,0.0083 -0.264583,-0.165364 -0.214974,-0.01654 -0.264583,-0.496094 -0.03307,-0.363802 z"
       id="path923"
       inkscape:connector-curvature="0" />
    <path
       style="fill:none;stroke:#0044aa;stroke-width:0.16500001;stroke-linecap:butt;stroke-linejoin:miter;stroke-miterlimit:4;stroke-dasharray:none;stroke-opacity:1"
       d="m 50.163346,20.249567 0.198437,-0.289388 0.206706,0.02481 v 0.214974 l -0.115755,0.23151 -0.231511,0.206706 -0.04961,-0.198438 z"
       id="path925"
       inkscape:connector-curvature="0" />
    <path
       style="fill:none;stroke:#0044aa;stroke-width:0.16500001;stroke-linecap:butt;stroke-linejoin:miter;stroke-miterlimit:4;stroke-dasharray:none;stroke-opacity:1"
       d="m 50.022786,21.679971 0.124023,-0.405143 0.223242,-0.157097 0.206706,0.08268 -0.0083,0.347266 -0.0083,0.248047 0.03307,0.198437 0.330729,0.19017 0.09922,0.09095 0.02479,0.471289 0.09095,0.132292 v 0.380339 l -0.107487,0.148828 H 50.76694 l -0.14056,-0.42168 -0.223242,-0.42168 -0.19017,-0.37207 -0.03307,-0.305925 z"
       id="path927"
       inkscape:connector-curvature="0" />
    <path
       style="fill:none;stroke:#0044aa;stroke-width:0.16500001;stroke-linecap:butt;stroke-linejoin:miter;stroke-miterlimit:4;stroke-dasharray:none;stroke-opacity:1"
       d="m 49.981445,24.821898 0.181901,-0.454753 0.223242,-0.206706 0.42168,-0.05788 0.190169,0.02481 -0.198438,0.314192 -0.264583,0.04134 0.09095,0.173633 0.04961,0.388607 v 0.314193 l -0.190169,-0.04134 -0.231511,-0.363803 -0.02479,0.314193 -0.181901,-0.04961 z"
       id="path929"
       inkscape:connector-curvature="0" />
    <path
       style="fill:none;stroke:#0044aa;stroke-width:0.16500001;stroke-linecap:butt;stroke-linejoin:miter;stroke-miterlimit:4;stroke-dasharray:none;stroke-opacity:1"
       d="m 51.95803,24.503395 0.467723,-0.07016 0.374176,0.42095 0.239707,0.04093 0.286481,-0.128623 0.175395,0.169549 0.374179,-0.01169 0.584652,0.0877 0.391716,0.315712 0.28648,-0.08185 0.368329,-0.05262 0.233863,-0.175396 0.128621,0.146163 -0.076,0.327405 -0.169547,0.116931 -0.555422,0.0058 0.0058,0.204628 0.280633,0.257247 -0.07601,0.222168 -0.268941,-0.05846 -0.508648,-0.38587 -0.321556,0.26894 -0.3391,-0.181243 -0.257247,0.01169 -0.07016,-0.13447 -0.140316,0.116931 -0.09355,-0.444336 -0.426794,-0.2514 -0.415105,-0.04093 -0.157856,-0.187089 -0.05846,-0.2514 -0.198781,-0.03508 z"
       id="path931"
       inkscape:connector-curvature="0" />
    <path
       style="fill:none;stroke:#0044aa;stroke-width:0.16500001;stroke-linecap:butt;stroke-linejoin:miter;stroke-miterlimit:4;stroke-dasharray:none;stroke-opacity:1"
       d="m 56.097368,25.432991 0.280633,0.28648 0.076,0.187089 0.181242,0.076 0.111085,0.02339 0.09939,0.228014 0.327404,0.09354 0.134471,-0.09354 0.02923,-0.09354 -0.315712,-0.339098 -0.350792,-0.257247 -0.2514,-0.169549 -0.163703,-0.09939 z"
       id="path933"
       inkscape:connector-curvature="0" />
    <path
       style="fill:none;stroke:#0044aa;stroke-width:0.16500001;stroke-linecap:butt;stroke-linejoin:miter;stroke-miterlimit:4;stroke-dasharray:none;stroke-opacity:1"
       d="m 58.213809,33.36672 0.04092,-0.33325 0.654812,-0.526188 0.11693,-0.263094 -0.04093,-0.280633 0.304019,0.111083 0.122778,0.116933 0.07016,0.11693 -0.111082,0.152008 -0.02923,0.280633 -0.298172,0.152011 -0.02339,0.286478 -0.479415,0.514495 z"
       id="path935"
       inkscape:connector-curvature="0" />
    <path
       style="fill:none;stroke:#0044aa;stroke-width:0.16500001;stroke-linecap:butt;stroke-linejoin:miter;stroke-miterlimit:4;stroke-dasharray:none;stroke-opacity:1"
       d="m 59.535123,31.975247 0.105235,0.298173 0.263094,-0.09354 0.07601,-0.280633 0.02923,-0.192934 0.350792,-0.140317 -0.09355,-0.239707 -0.438488,0.01754 -0.07016,-0.216321 -0.508648,-0.491109 -0.140317,0.13447 v 0.175397 l 0.315711,0.362482 0.111086,0.116933 z"
       id="path937"
       inkscape:connector-curvature="0" />
    <path
       style="fill:none;stroke:#0044aa;stroke-width:0.16500001;stroke-linecap:butt;stroke-linejoin:miter;stroke-miterlimit:4;stroke-dasharray:none;stroke-opacity:1"
       d="m 49.146354,28.302823 1.25677,-0.429948 0.115756,-0.289388 0.08268,-0.322461 0.239779,-0.02479 0.338997,-0.421679 0.305924,-0.01654 0.165365,0.256315 0.214974,-0.04134 0.0083,-0.355534 0.297656,-0.338998 0.727604,0.181902 0.09922,0.165365 -0.06615,0.272851 0.338998,0.372071 0.115755,0.115755 0.37207,-0.02479 0.09095,-0.363802 0.05788,-0.620118 0.231511,0.107488 0.05788,0.429948 0.272852,0.03307 0.124023,0.157096 0.03307,0.264583 0.107487,0.173633 0.04961,0.380339 0.405143,0.0083 0.04134,0.223242 0.711068,0.719336 -0.03307,0.305924 0.157096,0.239779 -0.124023,0.545703 -0.380339,0.330729 -0.09922,0.429948 -0.09095,0.165365 0.01654,0.42168 -0.08268,0.173632 -0.454753,0.107487 -0.03307,0.124024 -0.46302,-0.07441 -0.09095,-0.09922 -0.305924,0.124023 -0.438217,-0.322461 -0.05788,-0.388606 -0.214974,-0.107487 -0.04961,-0.355534 -0.256316,0.06615 0.0083,0.173632 -0.289388,-0.01654 -0.314192,-0.471289 -0.479558,-0.09095 -0.520898,0.04961 -0.405143,0.338997 -0.760677,0.107487 -0.248047,0.198438 -0.628386,-0.0083 0.01654,-0.305925 0.14056,-0.264583 0.0083,-0.330729 -0.396875,-0.669727 -0.08268,-0.363802 0.06614,-0.388607 z"
       id="path939"
       inkscape:connector-curvature="0" />
    <path
       style="fill:none;stroke:#0044aa;stroke-width:0.16500001;stroke-linecap:butt;stroke-linejoin:miter;stroke-miterlimit:4;stroke-dasharray:none;stroke-opacity:1"
       d="m 54.479361,32.164086 0.529167,-0.05788 0.115755,0.380339 -0.289388,0.330729 h -0.14056 l -0.157096,-0.479557 z"
       id="path941"
       inkscape:connector-curvature="0" />
    <path
       style="fill:none;stroke:#0044aa;stroke-width:0.065;stroke-linecap:butt;stroke-linejoin:miter;stroke-miterlimit:4;stroke-dasharray:none;stroke-opacity:1"
       d="m 10.517187,12.171507 0.124024,-0.206705 0.05788,-0.173633 0.314193,-0.01654 -0.01654,0.181901 0.281119,0.03307 -0.07441,0.157097 -0.338997,0.09922 -0.289388,0.05788 z"
       id="path943"
       inkscape:connector-curvature="0" />
    <path
       style="fill:none;stroke:#0044aa;stroke-width:0.065;stroke-linecap:butt;stroke-linejoin:miter;stroke-miterlimit:4;stroke-dasharray:none;stroke-opacity:1"
       d="m 12.625586,13.899567 0.132291,-0.248047 0.214974,0.05788 0.0083,0.405143 -0.0083,0.463021 -0.107487,-0.214974 -0.04961,-0.165365 z"
       id="path945"
       inkscape:connector-curvature="0" />
  </g>
</svg>
